<svg width="182" height="49" viewBox="0 0 182 49" fill="none" xmlns="http://www.w3.org/2000/svg">
<path d="M171.191 10.5L161.311 10.48C160.911 10.48 160.531 10.64 160.241 10.92L157.631 13.53C157.351 13.81 157.191 14.2 157.191 14.6V16.13C157.191 16.87 157.791 17.47 158.531 17.47H172.581C173.731 17.47 174.661 18.4 174.661 19.55V29.32C174.661 30.47 173.731 31.4 172.581 31.4H167.211C167.201 31.4 167.181 31.4 167.171 31.4H158.571C157.811 31.4 157.191 32.02 157.191 32.78V36.98C157.191 37.74 157.811 38.36 158.571 38.36H171.191C176.961 38.36 181.641 33.68 181.641 27.91V20.92C181.641 15.15 176.961 10.48 171.191 10.48" fill="#ED1944"/>
<path d="M6.99086 27.1C7.19086 27.66 7.72087 28.03 8.32087 28.03H12.6609C13.6309 28.03 14.3009 27.07 13.9709 26.17L7.00087 7.92001C6.80087 7.37001 6.27087 7 5.68087 7H1.38086C0.430864 7 -0.239131 7.95001 0.0808688 8.85001L6.99086 27.12V27.1Z" fill="#ED1944"/>
<path d="M127.891 41.95H123.521C122.791 41.95 122.211 42.5399 122.211 43.2599V47.6299C122.211 48.3499 122.801 48.9399 123.521 48.9399H127.891C128.621 48.9399 129.201 48.3499 129.201 47.6299V43.2599C129.201 42.5399 128.611 41.95 127.891 41.95Z" fill="#ED1944"/>
<path d="M152.301 41.95H141.051C140.291 41.95 139.681 42.5599 139.681 43.3199V47.5699C139.681 48.3299 140.291 48.9399 141.051 48.9399H152.301C153.061 48.9399 153.671 48.3299 153.671 47.5699V43.3199C153.671 42.5599 153.061 41.95 152.301 41.95Z" fill="#ED1944"/>
<path d="M62.9008 10.49H60.0108L69.5808 1.39C70.0708 0.859999 69.7008 0 68.9708 0H61.8908C61.3408 0 60.8108 0.220006 60.4208 0.600006L45.6908 15.12C44.8208 15.99 45.4408 17.48 46.6708 17.48H62.9508C64.8308 17.48 66.3608 19.1 66.3608 20.98V31.47L40.4208 31.45C39.2808 31.45 38.3608 30.53 38.3608 29.39V8.37001C38.3608 7.61001 37.7508 7 36.9908 7H32.8308C32.0708 7 31.4608 7.61001 31.4608 8.37001L31.4908 28.54C31.7608 34.01 36.2708 38.36 41.8008 38.36L71.8908 38.38C72.6508 38.38 73.2608 37.77 73.2608 37.01L73.2108 20.67C73.0208 15.12 68.4808 10.5 62.8908 10.5" fill="#ED1944"/>
<path d="M26.6009 6.98999H22.4409C21.6809 6.98999 21.0709 7.59999 21.0709 8.35999V29.49C21.0709 30.63 20.1509 31.56 19.0109 31.56L4.18086 31.54C3.78086 31.54 3.40086 31.7 3.12086 31.98L0.450859 34.52C0.170859 34.8 0.0108643 35.19 0.0108643 35.59V37.12C0.0108643 37.86 0.610861 38.46 1.35086 38.46H17.6409C23.1809 38.46 27.6809 34.11 27.9509 28.64L27.9809 8.35999C27.9809 7.59999 27.3709 6.98999 26.6109 6.98999" fill="#ED1944"/>
<path d="M153.641 28.46L153.671 18.85C153.671 18.09 153.051 17.47 152.291 17.47H148.081C147.321 17.47 146.701 18.09 146.701 18.85V29.32C146.701 30.47 145.761 31.41 144.611 31.41H129.231V20.94C129.231 14.19 124.391 10.49 118.741 10.49H108.871C108.471 10.49 108.091 10.65 107.801 10.93L105.191 13.54C104.911 13.82 104.751 14.21 104.751 14.61V16.14C104.751 16.88 105.351 17.48 106.091 17.48H120.141C121.291 17.47 122.231 18.4 122.231 19.56L122.261 31.42L99.1509 31.47C98.3809 31.47 97.7609 32.09 97.7609 32.86V37.08C97.7609 37.85 98.3809 38.47 99.1509 38.47H104.761V39.89C104.761 41.04 103.821 41.98 102.671 41.98H85.6709C84.6309 41.97 83.7909 41.13 83.7809 40.08V25.87C83.7809 25.1 83.1509 24.49 82.3809 24.49H78.1709C77.4109 24.49 76.7909 25.11 76.7909 25.87L76.8109 38.49C76.7909 45.46 80.2809 48.95 87.2709 48.95H101.411C107.611 48.95 111.741 44.98 111.741 38.46H127.851C128.621 38.46 129.241 37.84 129.241 37.07V34.9L129.261 34.92L132.321 38.05C132.581 38.31 132.931 38.46 133.291 38.46H143.231C148.831 38.46 153.391 33.99 153.671 28.46" fill="#ED1944"/>
</svg>
